<svg xmlns="http://www.w3.org/2000/svg" xmlns:xlink="http://www.w3.org/1999/xlink" width="500" zoomAndPan="magnify" viewBox="0 0 375 374.999991" height="500" preserveAspectRatio="xMidYMid meet" version="1.0"><defs><g/></defs><rect x="-37.5" width="450" fill="#ffffff" y="-37.499999" height="449.999989" fill-opacity="1"/><rect x="-37.5" width="450" fill="#2b2629" y="-37.499999" height="449.999989" fill-opacity="1"/><g fill="#e6e6dd" fill-opacity="1"><g transform="translate(123.565002, 283.874981)"><g><path d="M 13.441406 -0.320312 L 53.121094 -0.320312 L 53.121094 -168.636719 L 13.441406 -168.957031 Z M 82.238281 -0.320312 C 82.238281 -0.320312 136.957031 3.519531 136.957031 -42.238281 C 136.957031 -79.679688 88.636719 -83.839844 78.078125 -84.480469 C 88.320312 -84.160156 130.878906 -86.398438 130.878906 -126.398438 C 130.878906 -168.636719 69.757812 -168.636719 69.757812 -168.636719 C 69.757812 -168.636719 97.277344 -167.355469 97.277344 -127.039062 C 97.277344 -86.398438 75.839844 -84.480469 75.839844 -84.480469 L 76.480469 -84.480469 C 79.359375 -83.839844 103.359375 -80.640625 103.359375 -42.558594 C 103.359375 -2.238281 82.238281 -0.320312 82.238281 -0.320312 Z M 82.238281 -0.320312 "/></g></g></g></svg>
